# xmcd
# 
# Track frame offsets:
#     150
#     10415
#     32892
#     56800
#     73832
#     94022
#     114340
#     117805
#     136882
#     155587
# 
# Disc length: 2510
# 
# Revision: 2
# Processed by: cddbd v1.5.2PL0 Copyright (c) Steve Scherf et al.
# Submitted via: fre:ac v1.0.31
# 
DISCID=8609cc0a
DTITLE=Coldplay - Parachutes
DYEAR=2000
DGENRE=Rock/Pop
TTITLE0=Don't Panic
TTITLE1=Shiver
TTITLE2=Spies
TTITLE3=Sparks
TTITLE4=Yellow
TTITLE5=Trouble
TTITLE6=Parachutes
TTITLE7=High Speed
TTITLE8=We Never Change
TTITLE9=Everything's Not Lost
EXTD=
EXTT0=
EXTT1=
EXTT2=
EXTT3=
EXTT4=
EXTT5=
EXTT6=
EXTT7=
EXTT8=
EXTT9=
PLAYORDER=
